<?xml version="1.0" encoding="UTF-8"?> <svg xmlns="http://www.w3.org/2000/svg" xmlns:xlink="http://www.w3.org/1999/xlink" version="1.1" id="Layer_1" x="0px" y="0px" width="110px" height="137px" viewBox="0 0 110 137" style="enable-background:new 0 0 110 137;" xml:space="preserve"> <style type="text/css"> .st0{fill-rule:evenodd;clip-rule:evenodd;fill:#00A755;} .st1{fill:#00A755;} </style> <g id="Group_6" transform="translate(-2886 4950.832)"> <path id="Path_4" class="st0" d="M2993.8-4938.1c-0.2-1.3-0.4-2.5-0.6-3.7l-0.3-2.2l-1.9,1.1c-2.1,1.2-9.8,3.7-19.7,3.7 c-8.2,0-20-1.8-29.2-10.5l-1-1l-1,1c-9.2,8.7-21,10.5-29.2,10.5c-9.9,0-17.6-2.5-19.7-3.7l-1.9-1.1l-0.3,2.2 c-0.2,1.1-0.4,2.4-0.6,3.7c-1,5.9-2.3,13.3-2.2,23.3c0.1,11.8,2.1,24.5,6,38.7c2.3,8.3,6.2,16.6,11.8,24.9 c4.7,7,10.1,13.5,16.1,19.4c10.6,10.7,19.9,17,20.3,17.3l0.9,0.6l0.9-0.6c0.4-0.3,9.7-6.5,20.3-17.3c6-6,11.3-12.5,16.1-19.4 c5.5-8.3,9.5-16.7,11.8-24.9c3.9-14.2,5.9-26.8,6-38.7C2996.1-4924.9,2994.8-4932.2,2993.8-4938.1 M2988.5-4876.6 c-9.8,35.5-47.5,60.7-47.5,60.7s-37.7-25.3-47.5-60.7c-9.8-35.5-4.9-53.7-3.2-65c2.7,1.5,10.8,3.9,20.5,3.9 c9.8,0,21.3-2.5,30.2-10.9c8.9,8.5,20.4,10.9,30.2,10.9c9.7,0,17.8-2.4,20.5-3.9C2993.4-4930.3,2998.3-4912.1,2988.5-4876.6"></path> <path id="Path_5" class="st0" d="M2919.3-4918.3c1.3-1.1,2.3-3,2.3-5.7c0-2.5-0.9-4.2-2.4-5.3c-1.3-1-3.1-1.5-5.7-1.5 c-1.4,0-2.8,0.1-4.2,0.3v13.7c1.2,0.1,2.4,0.2,3.6,0.2C2915.5-4916.5,2917.8-4917.1,2919.3-4918.3 M2912.4-4928.2 c0.5-0.1,0.9-0.1,1.4-0.1c2.7,0,4.4,1.5,4.4,4.4c0,3.3-1.9,4.9-4.8,4.9c-0.4,0-0.7,0-1.1-0.1V-4928.2z"></path> <path id="Path_6" class="st0" d="M2932.3-4919.3h-5.7v-3.3h5.1v-2.6h-5.1v-2.9h5.4v-2.6h-8.6v14h8.9V-4919.3z"></path> <path id="Path_7" class="st0" d="M2941.3-4916.7l4.7-14h-3.4l-1.8,6c-0.5,1.6-0.9,3.3-1.3,4.9h-0.1c-0.3-1.7-0.8-3.3-1.2-5 l-1.7-5.9h-3.5l4.5,14H2941.3z"></path> <path id="Path_8" class="st0" d="M2953-4916.5c4.1,0,6.9-2.8,6.9-7.4c0-3.9-2.3-7.1-6.6-7.1c-4.1,0-6.8,3.1-6.8,7.3 C2946.4-4919.6,2948.8-4916.5,2953-4916.5 M2953.1-4928.4c2.2,0,3.4,2.2,3.4,4.7c0,2.7-1.2,4.7-3.4,4.7c-2.1,0-3.4-1.9-3.4-4.7 C2949.7-4926.4,2951-4928.4,2953.1-4928.4"></path> <path id="Path_9" class="st0" d="M2964.5-4920.9c0-2.3,0-4.2-0.1-6.1h0.1c0.7,1.7,1.5,3.3,2.4,4.9l3,5.4h3.3v-14h-2.9v4.1 c0,2,0.1,3.9,0.2,5.8h0c-0.7-1.6-1.4-3.2-2.3-4.8l-2.9-5.1h-3.7v14h2.9V-4920.9z"></path> <path id="Path_10" class="st0" d="M2931.7-4851L2931.7-4851c1.5-0.6,2.4-1.9,2.5-3.5c0.1-1.1-0.4-2.2-1.3-2.9 c-1-0.8-2.4-1.1-4.5-1.1c-1.4,0-2.8,0.1-4.2,0.3v13.8h3.1v-5.5h0.9c1.3,0,1.9,0.5,2.3,2.2c0.2,1.1,0.5,2.2,1,3.3h3.2 c-0.3-0.5-0.7-2.4-1.1-4C2933.2-4849.7,2932.7-4850.6,2931.7-4851 M2928.5-4852.3h-1.2v-3.8c0.5-0.1,1-0.1,1.4-0.1 c1.5,0,2.3,0.7,2.3,1.9C2931-4853,2930.1-4852.3,2928.5-4852.3"></path> <path id="Path_11" class="st0" d="M2936.2-4844.5h3.1v-5.6h5v-2.6h-5v-3.2h5.4v-2.6h-8.5V-4844.5z"></path> <path id="Path_12" class="st0" d="M2955.1-4850.4c0,2.5-0.9,3.6-2.6,3.6c-1.6,0-2.5-1.2-2.5-3.6v-8h-3.1v7.8c0,4.4,2.1,6.4,5.6,6.4 c3.6,0,5.8-2.1,5.8-6.4v-7.8h-3.1L2955.1-4850.4z"></path> <path id="Path_13" class="st0" d="M2909.2-4897.7h11.6v-5.6h-2.9v3.7h-2.5v-3.7h-3.8v3.7h-2.5v-3.7h-2.9v5.6H2909.2z"></path> <path id="Path_14" class="st0" d="M2920.6-4896.8h-14.2v2.3h1.7v1.3h10.8v-1.3h1.7L2920.6-4896.8z"></path> <rect id="Rectangle_21" x="2905.6" y="-4873.3" class="st1" width="15.7" height="9.3"></rect> <path id="Path_15" class="st0" d="M2906.8-4874h13.5l-1.3-18h-10.8L2906.8-4874z"></path> <path id="Path_16" class="st0" d="M2948.3-4906.7v-5.6h-2.9v3.7h-2.5v-3.7h-3.8v3.7h-2.5v-3.7h-2.9v5.6H2948.3z"></path> <path id="Path_17" class="st0" d="M2948.1-4905.8h-14.2v2.3h1.7v1.3h10.8v-1.3h1.7L2948.1-4905.8z"></path> <path id="Path_18" class="st0" d="M2941-4880.6c3.3,0,6.1,4.3,6.1,9.7h1.5v-11.3h-15.2v11.3h1.5 C2935-4876.3,2937.7-4880.6,2941-4880.6"></path> <path id="Path_19" class="st0" d="M2935.6-4901l-1.3,18h13.5l-1.3-18L2935.6-4901z"></path> <path id="Path_20" class="st0" d="M2932.4-4875.4l-10.2,6.5l0.1,3.1l10.2-6.5C2932.4-4873.3,2932.4-4874.4,2932.4-4875.4"></path> <path id="Path_21" class="st0" d="M2932.5-4880.5l-10.4,6.6l0.1,2.9l10.3-6.6C2932.4-4878.5,2932.5-4879.5,2932.5-4880.5"></path> <path id="Path_22" class="st0" d="M2932.9-4888.3l-11.7,7.5c0.1,1.7,0.3,3.7,0.5,5.9l10.8-6.9 C2932.6-4884.2,2932.8-4886.4,2932.9-4888.3"></path> <path id="Path_23" class="st0" d="M2921.1-4882.2l11.9-7.6c0.1-1.3,0.3-2.4,0.4-3.3l-12.5,8 C2921-4884.4,2921.1-4883.4,2921.1-4882.2"></path> <path id="Path_24" class="st0" d="M2949.6-4872.3l10.2,6.5l0.1-3.1l-10.2-6.5C2949.6-4874.4,2949.6-4873.3,2949.6-4872.3"></path> <path id="Path_25" class="st0" d="M2949.6-4877.5l10.3,6.6l0.1-2.9l-10.4-6.6C2949.6-4879.5,2949.6-4878.5,2949.6-4877.5"></path> <path id="Path_26" class="st0" d="M2949.1-4888.3c0.2,1.9,0.3,4,0.4,6.4l10.8,6.9c0.2-2.2,0.3-4.2,0.5-5.9L2949.1-4888.3z"></path> <path id="Path_27" class="st0" d="M2949-4889.8l11.9,7.6c0.1-1.2,0.2-2.2,0.2-2.9l-12.5-8C2948.7-4892.3,2948.8-4891.2,2949-4889.8 "></path> <path id="Path_28" class="st0" d="M2964.1-4897.7h11.6v-5.6h-2.9v3.7h-2.5v-3.7h-3.8v3.7h-2.5v-3.7h-2.9v5.6H2964.1L2964.1-4897.7z "></path> <path id="Path_29" class="st0" d="M2975.6-4896.8h-14.2v2.3h1.7v1.3h10.8v-1.3h1.7V-4896.8z"></path> <rect id="Rectangle_22" x="2960.6" y="-4873.3" class="st1" width="15.7" height="9.3"></rect> <path id="Path_30" class="st0" d="M2963.1-4892.1l-1.3,18h13.5l-1.3-18H2963.1z"></path> </g> </svg> 